HIERARCHY
ROOT hip
{
	OFFSET 0.000000 0.000000 0.000000 
	CHANNELS 6 Xposition Yposition Zposition Xrotation Zrotation Yrotation
	JOINT abdomen
	{
		OFFSET 0.000000 3.402643 0.000000 
		CHANNELS 3 Xrotation Zrotation Yrotation
		JOINT chest
		{
			OFFSET 0.000000 8.438565 -0.680529 
			CHANNELS 3 Xrotation Zrotation Yrotation
			JOINT neck
			{
				OFFSET 0.000000 10.207942 -0.272212 
				CHANNELS 3 Xrotation Zrotation Yrotation
				JOINT head
				{
					OFFSET 0.000000 3.130431 0.000000 
					CHANNELS 3 Xrotation Zrotation Yrotation
					End Site
					{
						OFFSET 0.000000 3.130435 0.000000 
					}
				}
			}
			JOINT lCollar
			{
				OFFSET 3.470700 6.669187 -0.816635 
				CHANNELS 3 Yrotation Zrotation Xrotation
				JOINT lShldr
				{
					OFFSET 3.198488 0.000000 0.000000 
					CHANNELS 3 Zrotation Yrotation Xrotation
					JOINT lForeArm
					{
						OFFSET 10.139888 0.000000 0.000000 
						CHANNELS 3 Yrotation Zrotation Xrotation
						JOINT lHand
						{
							OFFSET 8.370511 0.000000 0.000000 
							CHANNELS 3 Zrotation Yrotation Xrotation
							End Site
							{
								OFFSET 4.083176 0.000000 0.000000 
							}
						}
					}
				}
			}
			JOINT rCollar
			{
				OFFSET -3.470700 6.669187 -0.816635 
				CHANNELS 3 Yrotation Zrotation Xrotation
				JOINT rShldr
				{
					OFFSET -3.198488 0.000000 0.000000 
					CHANNELS 3 Zrotation Yrotation Xrotation
					JOINT rForeArm
					{
						OFFSET -10.139888 0.000000 0.000000 
						CHANNELS 3 Yrotation Zrotation Xrotation
						JOINT rHand
						{
							OFFSET -8.370511 0.000000 0.000000 
							CHANNELS 3 Zrotation Yrotation Xrotation
							End Site
							{
								OFFSET -4.083176 0.000000 0.000000 
							}
						}
					}
				}
			}
		}
	}
	JOINT lThigh
	{
		OFFSET 5.308129 -1.633274 1.361059 
		CHANNELS 3 Xrotation Zrotation Yrotation
		JOINT lShin
		{
			OFFSET -2.041588 -20.007561 0.000000 
			CHANNELS 3 Xrotation Zrotation Yrotation
			JOINT lFoot
			{
				OFFSET 0.000000 -19.190928 -1.224953 
				CHANNELS 3 Xrotation Yrotation Zrotation
				End Site
				{
					OFFSET 0.000000 -2.449906 4.627600 
				}
			}
		}
	}
	JOINT rThigh
	{
		OFFSET -5.308129 -1.633274 1.361059 
		CHANNELS 3 Xrotation Zrotation Yrotation
		JOINT rShin
		{
			OFFSET 2.041588 -20.007561 0.000000 
			CHANNELS 3 Xrotation Zrotation Yrotation
			JOINT rFoot
			{
				OFFSET 0.000000 -19.190928 -1.224953 
				CHANNELS 3 Xrotation Yrotation Zrotation
				End Site
				{
					OFFSET 0.000000 -2.449906 4.627600 
				}
			}
		}
	}
}
MOTION
Frames: 10
Frame Time: 0.016667
-0.507971 48.145485 0.450629 -2.662174 3.141031 -5.261508 0.000000 0.000000 0.000000 -10.834521 -1.193964 6.280574 34.357540 -5.224362 -0.559664 -24.376751 3.627594 5.205882 -4.207627 -0.579649 24.778551 -67.352997 12.736965 -19.632711 -46.564930 -31.720335 117.994865 -18.301735 -5.187818 -58.829712 0.784445 -11.663531 24.805147 66.606918 19.912991 73.542885 38.149166 -40.588936 60.247433 30.355680 6.067563 -80.547516 5.889002 0.391209 17.158312 24.978403 5.954860 0.528265 -10.316931 -5.586030 -16.498804 -1.141243 -4.028376 -0.038803 35.651455 -3.339628 1.496436 -7.239342 4.549653 16.529470 
-0.507971 48.145485 0.450629 -2.662174 3.141031 -5.261508 0.000000 0.000000 0.000000 -10.834521 -1.193964 6.280574 34.357540 -5.224362 -0.559664 -24.376751 3.627594 5.205882 -4.207627 -0.579649 24.778551 -67.352997 12.736965 -19.632711 -46.564930 -31.720335 117.994865 -18.301735 -5.187818 -58.829712 0.784445 -11.663531 24.805147 66.606918 19.912991 73.542885 38.149166 -40.588936 60.247433 30.355680 6.067563 -80.547516 5.889002 0.391209 17.158312 24.978403 5.954860 0.528265 -10.316931 -5.586030 -16.498804 -1.141243 -4.028376 -0.038803 35.651455 -3.339628 1.496436 -7.239342 4.549653 16.529470 
-0.497342 48.136585 0.495731 -2.642599 3.385288 -5.047546 0.000000 0.000000 0.000000 -10.741014 -1.611665 6.183855 34.117500 -4.902136 -0.529587 -24.344227 3.423148 5.244252 -4.150372 -0.146638 24.813906 -67.059082 11.827813 -19.581823 -46.505043 -31.318890 115.890236 -19.619703 -4.255267 -59.100800 0.279868 -11.327479 24.702623 65.854591 20.027264 73.209564 37.027527 -39.625576 56.294476 30.242168 5.759315 -80.564980 5.845593 0.098125 17.095228 25.085638 6.101254 0.550058 -10.232542 -5.744774 -17.069347 -1.082048 -4.358707 -0.152491 35.651470 -3.218440 1.533013 -7.304581 4.279594 15.861490 
-0.486713 48.127682 0.540829 -2.622647 3.639335 -4.843429 0.000000 0.000000 0.000000 -10.645406 -2.019768 6.097522 33.877785 -4.579905 -0.500355 -24.300758 3.228400 5.291843 -4.088848 0.300078 24.840921 -66.768562 10.911265 -19.534946 -46.429741 -30.921309 113.788376 -20.938330 -3.338047 -59.378620 -0.228380 -11.003142 24.602016 65.096924 20.124899 72.867218 36.018318 -38.612713 52.425724 30.138346 5.449440 -80.582115 5.795904 -0.194248 17.003288 25.171911 6.247306 0.562115 -10.160131 -5.890241 -17.624268 -1.013496 -4.697879 -0.256962 35.651947 -3.091555 1.561610 -7.369309 4.011011 15.193879 
-0.460630 48.129646 0.582201 -2.675940 3.981904 -4.493280 0.000000 0.000000 0.000000 -10.598418 -2.437710 6.011204 33.885181 -4.394372 -0.489839 -24.299818 3.150756 5.262044 -4.448883 0.538778 24.883698 -66.875801 10.652280 -19.446838 -46.279263 -29.060795 110.065392 -19.357454 -3.943557 -59.599464 -0.259082 -10.675019 24.597429 64.401466 19.728357 72.673027 35.084274 -37.918831 50.187191 29.269262 5.030849 -80.613045 5.784619 -0.691363 16.824940 25.186541 6.488126 0.641756 -10.268532 -6.009525 -17.586237 -0.799736 -5.196378 -0.376743 35.557533 -2.811698 1.576232 -7.522503 3.651361 14.779341 
-0.434549 48.131607 0.623568 -2.724334 4.314912 -4.141908 0.000000 0.000000 0.000000 -10.558931 -2.846066 5.925190 33.882870 -4.208838 -0.480092 -24.288513 3.073056 5.242009 -4.822223 0.781673 24.926167 -66.983627 10.384688 -19.361622 -45.974442 -27.218199 106.404037 -17.776432 -4.544153 -59.843243 -0.287964 -10.346914 24.603199 63.709526 19.339365 72.478706 34.197350 -37.198746 47.991043 28.402473 4.615582 -80.638046 5.770239 -1.210205 16.674065 25.186146 6.733963 0.682665 -10.338422 -6.138874 -17.516506 -0.595820 -5.698167 -0.497971 35.499767 -2.543121 1.588016 -7.675727 3.280908 14.368180 
-0.418596 48.151489 0.649308 -2.827525 4.569733 -3.859526 0.000000 0.000000 0.000000 -10.511173 -3.069746 5.877424 34.146378 -4.189307 -0.480091 -24.393005 3.044260 5.163994 -5.353893 0.671260 24.946060 -67.096214 10.503104 -19.335182 -45.477989 -24.738955 100.496307 -15.697121 -5.433375 -60.271473 0.002275 -10.157230 24.669062 63.475857 18.817064 72.499199 33.086872 -36.939953 47.107719 28.142918 4.552989 -80.644661 5.887949 -1.591334 16.549757 25.078157 6.921842 0.738453 -10.272253 -6.322402 -17.467798 -0.352065 -6.111588 -0.645466 35.413509 -2.353775 1.643301 -7.540085 3.196446 14.863598 
-0.402646 48.171371 0.675046 -2.928812 4.834358 -3.576446 0.000000 0.000000 0.000000 -10.463042 -3.293462 5.829741 34.400120 -4.169776 -0.480089 -24.487648 3.015450 5.085460 -5.880667 0.573306 24.964123 -67.208122 10.608881 -19.305904 -44.710213 -22.318270 94.665428 -13.602961 -6.307478 -60.733757 0.290229 -9.966919 24.723022 63.241596 18.295721 72.523811 31.996609 -36.670979 46.242260 27.883337 4.490263 -80.650780 5.993147 -1.990625 16.423294 24.959063 7.106803 0.791962 -10.182333 -6.508143 -17.428251 -0.107777 -6.515252 -0.774485 35.317352 -2.158711 1.690026 -7.409201 3.121153 15.351955 
-0.411291 48.188396 0.674341 -2.923130 4.932545 -3.440215 0.000000 0.000000 0.000000 -10.463042 -3.293462 5.829741 34.703182 -4.208838 -0.480092 -24.555002 3.074183 5.007450 -6.167880 0.448387 24.969656 -67.361343 10.561990 -19.234074 -43.793110 -20.165583 88.143936 -11.743201 -6.786588 -61.288338 0.499171 -9.960938 24.768913 63.436092 17.934093 72.692932 30.875689 -36.437958 46.029316 28.368368 4.477254 -80.648109 6.004197 -2.088682 16.380800 24.862865 7.087693 0.795255 -10.314266 -6.584668 -16.837763 -0.098247 -6.639678 -0.821548 35.327129 -2.158729 1.690225 -7.168913 3.192646 15.098896 
-0.419936 48.205421 0.673634 -2.916119 5.030780 -3.293430 0.000000 0.000000 0.000000 -10.463042 -3.293462 5.829741 35.006973 -4.247893 -0.489833 -24.612217 3.132879 4.939196 -6.450854 0.315590 24.964811 -67.514771 10.515571 -19.163918 -42.646088 -18.119030 81.656715 -9.880890 -7.240469 -61.860977 0.706347 -9.954802 24.803223 63.622456 17.559607 72.854942 29.762171 -36.212830 45.819321 28.841448 4.460519 -80.653389 6.003670 -2.185893 16.339243 24.766275 7.068476 0.790044 -10.491346 -6.671622 -16.277929 -0.087940 -6.754354 -0.867925 35.345783 -2.168477 1.697385 -6.954464 3.290794 14.848969 
